# xmcd
#
# Track frame offsets: 
#        150
#        16317
#        36734
#        54025
#        70813
#        86797
#        104284
#        123312
#        139993
#        156202
#        171228
#        190182
#        211359
#        229800
#        262116
#
# Disc length: 4517 seconds
#
# Revision: 1
# Processed by: cddbd v1.5.2PL0 Copyright (c) Steve Scherf et al.
# Submitted via: ExactAudioCopy v1.0b3
#
DISCID=d811a30f
DTITLE=Àí³ Ëîðàê - www.ANILORAK.com
DYEAR=2000
DGENRE=Pop
TTITLE0=Ани Лорак - Зеркала
TTITLE1=Ани Лорак - Манекенщица
TTITLE2=Ани Лорак - Ангел мрiй моiх
TTITLE3=Ани Лорак - Боже мой
TTITLE4=Ани Лорак - Пробач
TTITLE5=Ани Лорак - Нестримна течiя
TTITLE6=Ани Лорак - Я вернусь
TTITLE7=Ани Лорак - Берег моря
TTITLE8=Ани Лорак - О моя любов
TTITLE9=Ани Лорак - Забудь свiй сон
TTITLE10=Ани Лорак - Я i ти
TTITLE11=Ани Лорак - Новорiчна
TTITLE12=Ани Лорак - Мое життя
TTITLE13=Ани Лорак - The way we want it
TTITLE14=Ани Лорак - Bonus data
EXTD=
EXTT0=
EXTT1=
EXTT2=
EXTT3=
EXTT4=
EXTT5=
EXTT6=
EXTT7=
EXTT8=
EXTT9=
EXTT10=
EXTT11=
EXTT12=
EXTT13=
EXTT14=
PLAYORDER=
